<svg width="198" height="198" viewBox="0 0 198 198" fill="none" xmlns="http://www.w3.org/2000/svg">
<g filter="url(#filter0_d_103_23)">
<circle cx="98" cy="96" r="89" fill="#1A2E87"/>
</g>
<path d="M98.48 135.36C98.75 135.36 99.02 135.35 99.29 135.32C99.51 135.3 99.73 135.26 99.94 135.22C100 135.21 100.06 135.2 100.12 135.19C100.38 135.14 100.63 135.07 100.88 135C100.9 135 100.91 135 100.93 134.99C101.19 134.91 101.44 134.82 101.68 134.72H101.71C101.95 134.61 102.18 134.5 102.4 134.38C102.42 134.37 102.44 134.36 102.46 134.35C102.67 134.24 102.87 134.11 103.07 133.98C103.1 133.96 103.14 133.94 103.18 133.92C103.37 133.79 103.56 133.65 103.74 133.5C103.78 133.47 103.82 133.45 103.85 133.42C104.07 133.24 104.28 133.05 104.48 132.85L135.36 101.97C138.7 98.63 138.7 93.22 135.36 89.88C132.02 86.54 126.61 86.54 123.27 89.88L106.98 106.17V65.55C106.98 60.83 103.15 57 98.43 57C93.71 57 89.88 60.83 89.88 65.55V106.17L73.59 89.88C70.25 86.54 64.84 86.54 61.5 89.88C59.83 91.55 59 93.74 59 95.93C59 98.12 59.83 100.31 61.5 101.98L92.38 132.86C92.46 132.94 92.55 133.02 92.64 133.09C92.76 133.2 92.87 133.31 93 133.41C93.09 133.48 93.18 133.54 93.27 133.61C93.4 133.71 93.53 133.81 93.67 133.91C93.74 133.96 93.82 134 93.89 134.05C94.05 134.15 94.22 134.26 94.39 134.35C94.44 134.38 94.5 134.4 94.56 134.43C94.75 134.53 94.95 134.63 95.15 134.71C95.19 134.73 95.23 134.74 95.27 134.76C95.49 134.85 95.71 134.93 95.93 135C95.97 135.01 96.01 135.02 96.06 135.03C96.28 135.09 96.51 135.16 96.74 135.2C96.82 135.22 96.91 135.22 96.99 135.24C97.18 135.27 97.37 135.31 97.57 135.33C97.85 135.36 98.14 135.37 98.42 135.37C98.42 135.37 98.45 135.37 98.46 135.37L98.48 135.36Z" fill="white"/>
<defs>
<filter id="filter0_d_103_23" x="0" y="0" width="198" height="198" filterUnits="userSpaceOnUse" color-interpolation-filters="sRGB">
<feFlood flood-opacity="0" result="BackgroundImageFix"/>
<feColorMatrix in="SourceAlpha" type="matrix" values="0 0 0 0 0 0 0 0 0 0 0 0 0 0 0 0 0 0 127 0" result="hardAlpha"/>
<feOffset dx="1" dy="3"/>
<feGaussianBlur stdDeviation="5"/>
<feComposite in2="hardAlpha" operator="out"/>
<feColorMatrix type="matrix" values="0 0 0 0 0 0 0 0 0 0 0 0 0 0 0 0 0 0 0.3 0"/>
<feBlend mode="normal" in2="BackgroundImageFix" result="effect1_dropShadow_103_23"/>
<feBlend mode="normal" in="SourceGraphic" in2="effect1_dropShadow_103_23" result="shape"/>
</filter>
</defs>
</svg>
