<svg width="14" height="8" viewBox="0 0 14 8" fill="none" xmlns="http://www.w3.org/2000/svg">
<path d="M3.5464 7.26639C3.61532 7.46887 3.73606 7.64157 3.90862 7.78503C4.08117 7.92796 4.3466 7.99996 4.7054 7.99996C5.04367 7.99996 5.29883 7.93337 5.4709 7.80073C5.64345 7.6681 5.76419 7.49702 5.83312 7.2875L7.03318 3.36952L8.22298 7.2875C8.28506 7.49702 8.40385 7.6681 8.57982 7.80073C8.7558 7.93337 9.01634 7.99996 9.36096 7.99996C9.54721 7.99996 9.70607 7.98047 9.83708 7.94258C9.96808 7.90414 10.0786 7.85162 10.168 7.78558C10.258 7.71899 10.3303 7.64211 10.3851 7.55495C10.4403 7.46724 10.4853 7.37142 10.5195 7.26693L12.3198 1.01235C12.3477 0.921937 12.3579 0.825571 12.3506 0.724332C12.3438 0.623094 12.3179 0.527269 12.2729 0.436317C12.2279 0.345906 12.1609 0.26524 12.071 0.195402C11.9816 0.125564 11.8677 0.0768395 11.7298 0.0486877C11.4746 -0.00707467 11.2488 -0.00166085 11.0523 0.0643877C10.8558 0.130978 10.7194 0.286354 10.6436 0.530518L9.36048 5.73699L7.88129 0.48829C7.85392 0.390841 7.76935 0.287437 7.62759 0.179161C7.48632 0.0708843 7.27417 0.0167461 6.99114 0.0167461C6.73598 0.0167461 6.54289 0.0725085 6.41189 0.184575C6.28088 0.296099 6.20169 0.401127 6.17383 0.498576L4.71518 5.73645L3.42224 0.540804C3.34647 0.289603 3.20324 0.127188 2.99305 0.0535601C2.78285 -0.0195265 2.53942 -0.0179023 2.26372 0.0589739C2.12587 0.0941637 2.0154 0.147761 1.93279 0.221388C1.85018 0.295016 1.7881 0.375141 1.74655 0.462303C1.705 0.549466 1.68447 0.642042 1.68447 0.740032C1.68447 0.838022 1.69815 0.928433 1.72602 1.01235L3.54689 7.26639H3.5464Z" fill="#5C61F4"/>
<path d="M0.852963 2H13.147C13.6181 2 14 2.44772 14 3C14 3.55228 13.6181 4 13.147 4H0.852963C0.381885 4 0 3.55228 0 3C0 2.44772 0.381885 2 0.852963 2Z" fill="#5C61F4"/>
</svg>
