<svg width="12" height="13" viewBox="0 0 12 13" fill="none" xmlns="http://www.w3.org/2000/svg">
<path d="M0.75 3.41406V2.8125C0.75 2.38021 0.84375 1.98698 1.03125 1.63281C1.21875 1.27865 1.49479 0.994792 1.85938 0.78125C2.22396 0.567708 2.67188 0.460938 3.20312 0.460938C3.75 0.460938 4.20573 0.567708 4.57031 0.78125C4.9401 0.994792 5.21615 1.27865 5.39844 1.63281C5.58594 1.98698 5.67969 2.38021 5.67969 2.8125V3.41406C5.67969 3.83594 5.58594 4.22396 5.39844 4.57812C5.21615 4.93229 4.94271 5.21615 4.57812 5.42969C4.21354 5.64323 3.76302 5.75 3.22656 5.75C2.6849 5.75 2.22917 5.64323 1.85938 5.42969C1.49479 5.21615 1.21875 4.93229 1.03125 4.57812C0.84375 4.22396 0.75 3.83594 0.75 3.41406ZM2.24219 2.8125V3.41406C2.24219 3.59635 2.27604 3.77083 2.34375 3.9375C2.41667 4.09896 2.52604 4.23177 2.67188 4.33594C2.82292 4.4349 3.00521 4.48438 3.21875 4.48438C3.44271 4.48438 3.625 4.4349 3.76562 4.33594C3.90625 4.23177 4.01042 4.09896 4.07812 3.9375C4.14583 3.77083 4.17969 3.59635 4.17969 3.41406V2.8125C4.17969 2.61979 4.14323 2.44271 4.07031 2.28125C4.0026 2.11458 3.89583 1.98177 3.75 1.88281C3.60938 1.77865 3.42708 1.72656 3.20312 1.72656C2.99479 1.72656 2.81771 1.77865 2.67188 1.88281C2.52604 1.98177 2.41667 2.11458 2.34375 2.28125C2.27604 2.44271 2.24219 2.61979 2.24219 2.8125ZM6.1875 9.8125V9.21094C6.1875 8.78385 6.28125 8.39323 6.46875 8.03906C6.66146 7.6849 6.9401 7.40104 7.30469 7.1875C7.67448 6.97396 8.1276 6.86719 8.66406 6.86719C9.20573 6.86719 9.65885 6.97396 10.0234 7.1875C10.388 7.40104 10.6641 7.6849 10.8516 8.03906C11.0391 8.39323 11.1328 8.78385 11.1328 9.21094V9.8125C11.1328 10.2396 11.0391 10.6302 10.8516 10.9844C10.6693 11.3385 10.3958 11.6224 10.0312 11.8359C9.66667 12.0495 9.21615 12.1562 8.67969 12.1562C8.13802 12.1562 7.68229 12.0495 7.3125 11.8359C6.94271 11.6224 6.66146 11.3385 6.46875 10.9844C6.28125 10.6302 6.1875 10.2396 6.1875 9.8125ZM7.6875 9.21094V9.8125C7.6875 10 7.72917 10.1771 7.8125 10.3438C7.89583 10.5104 8.01042 10.6432 8.15625 10.7422C8.30729 10.8411 8.48177 10.8906 8.67969 10.8906C8.92969 10.8906 9.125 10.8411 9.26562 10.7422C9.40625 10.6432 9.5026 10.5104 9.55469 10.3438C9.61198 10.1771 9.64062 10 9.64062 9.8125V9.21094C9.64062 9.02344 9.60417 8.84896 9.53125 8.6875C9.45833 8.52083 9.34896 8.38802 9.20312 8.28906C9.0625 8.1849 8.88281 8.13281 8.66406 8.13281C8.44531 8.13281 8.26302 8.1849 8.11719 8.28906C7.97656 8.38802 7.86979 8.52083 7.79688 8.6875C7.72396 8.84896 7.6875 9.02344 7.6875 9.21094ZM9.21875 2.25L3.66406 11.1406L2.57031 10.5625L8.125 1.67188L9.21875 2.25Z" fill="#EA5353"/>
</svg>
