<svg width="32" height="19" viewBox="0 0 32 19" fill="none" xmlns="http://www.w3.org/2000/svg">
<path d="M1.94963 6.75879H30.0504C31.1271 6.75879 32 7.65339 32 8.75694C32 9.86049 31.1271 10.7551 30.0504 10.7551H1.94963C0.872879 10.7551 0 9.86049 0 8.75694C0 7.65339 0.872879 6.75879 1.94963 6.75879Z" fill="#F4D35C"/>
<path d="M8.18865 17.099C8.34371 17.5541 8.61532 17.9424 9.00351 18.2649C9.39169 18.5861 9.98882 18.748 10.796 18.748C11.5569 18.748 12.131 18.5983 12.5181 18.3001C12.9062 18.002 13.1779 17.6174 13.3329 17.1464L16.0326 8.3391L18.7092 17.1464C18.8489 17.6174 19.1161 18.002 19.512 18.3001C19.9079 18.5983 20.494 18.748 21.2693 18.748C21.6882 18.748 22.0456 18.7042 22.3403 18.619C22.635 18.5326 22.8836 18.4145 23.0848 18.2661C23.2871 18.1164 23.4499 17.9436 23.5731 17.7476C23.6973 17.5505 23.7985 17.3351 23.8755 17.1002L27.9256 3.04033C27.9882 2.8371 28.0113 2.62047 27.9948 2.3929C27.9794 2.16532 27.9212 1.94991 27.82 1.74546C27.7188 1.54222 27.5682 1.36089 27.3658 1.2039C27.1646 1.04691 26.9084 0.937378 26.5983 0.874095C26.0242 0.748745 25.5162 0.760915 25.0741 0.909387C24.632 1.05908 24.3252 1.40835 24.1548 1.95721L21.2682 13.661L17.9405 1.86229C17.879 1.64323 17.6887 1.41079 17.3698 1.16739C17.052 0.923991 16.5748 0.802293 15.938 0.802293C15.364 0.802293 14.9296 0.927642 14.6349 1.17956C14.3402 1.43026 14.1621 1.66635 14.0994 1.88541L10.818 13.6598L7.90934 1.98034C7.73889 1.41565 7.41668 1.05056 6.94382 0.885048C6.47096 0.720754 5.92333 0.724405 5.30311 0.897218C4.99301 0.976322 4.74448 1.0968 4.55863 1.26231C4.37279 1.42782 4.23313 1.60794 4.13966 1.80387C4.04619 1.99981 4 2.20791 4 2.42819C4 2.64846 4.03079 2.8517 4.09347 3.04033L8.18975 17.099H8.18865Z" fill="#F4D35C"/>
</svg>
