<svg width="12" height="7" viewBox="0 0 12 7" fill="none" xmlns="http://www.w3.org/2000/svg">
<path d="M0.731112 2.24805H11.2689C11.6727 2.24805 12 2.58352 12 2.99735C12 3.41118 11.6727 3.74666 11.2689 3.74666H0.731112C0.32733 3.74666 0 3.41118 0 2.99735C0 2.58352 0.32733 2.24805 0.731112 2.24805Z" fill="#191919"/>
<path d="M3.07074 6.12537C3.12889 6.29606 3.23075 6.44164 3.37632 6.56258C3.52188 6.68306 3.74581 6.74376 4.04849 6.74376C4.33386 6.74376 4.54912 6.68762 4.69427 6.57581C4.83984 6.464 4.9417 6.31979 4.99984 6.14317L6.01223 2.84042L7.01596 6.14317C7.06833 6.31979 7.16853 6.464 7.31699 6.57581C7.46545 6.68762 7.68524 6.74376 7.97597 6.74376C8.13308 6.74376 8.26711 6.72733 8.37762 6.69538C8.48814 6.66298 8.58134 6.61871 8.6568 6.56303C8.73268 6.5069 8.79371 6.4421 8.8399 6.36862C8.8865 6.29469 8.92444 6.21391 8.9533 6.12583L10.4721 0.853382C10.4956 0.777168 10.5043 0.695934 10.4981 0.610593C10.4923 0.525251 10.4704 0.444474 10.4325 0.367804C10.3946 0.29159 10.3381 0.223591 10.2622 0.164719C10.1867 0.105847 10.0906 0.0647737 9.97435 0.0410424C9.75909 -0.00596376 9.56857 -0.00140005 9.40279 0.0542771C9.23702 0.110411 9.12196 0.241389 9.05805 0.447212L7.97556 4.83613L6.7277 0.411615C6.70461 0.329469 6.63327 0.242302 6.51368 0.151028C6.3945 0.0597536 6.21553 0.0141165 5.97677 0.0141165C5.7615 0.0141165 5.59862 0.0611227 5.4881 0.155591C5.37758 0.249604 5.31078 0.33814 5.28727 0.420286L4.05674 4.83567L2.966 0.455883C2.90208 0.244127 2.78126 0.107216 2.60393 0.0451497C2.42661 -0.0164603 2.22125 -0.0150912 1.98867 0.0497134C1.87238 0.0793775 1.77918 0.124558 1.70949 0.186625C1.6398 0.248691 1.58742 0.316234 1.55237 0.389709C1.51732 0.463185 1.5 0.541224 1.5 0.623828C1.5 0.706431 1.51155 0.782645 1.53505 0.853382L3.07116 6.12537H3.07074Z" fill="#191919"/>
</svg>
